<svg width="595" height="432" viewBox="0 0 595 432" fill="none" xmlns="http://www.w3.org/2000/svg">
<path d="M29.0185 429.624C29.0185 429.624 -14.9741 374.297 13.3306 295.543C37.1706 229.212 105.242 271.849 86.6013 187.996C69.6909 111.932 86.8981 46.0081 244.105 11.6872C345.577 -10.4666 503.905 -18.0874 468.374 149.571C455.724 209.261 658.684 159.641 573.591 429.626H29.0185V429.624Z" fill="#EBF3FA"/>
<path d="M469.166 354.899C466.452 340.142 441.692 342.626 441.692 342.626C441.692 342.626 423.031 366.508 418.163 366.709C413.296 366.91 430.126 343.181 430.126 343.181C420.867 341.503 396.132 350.955 396.132 350.955C396.132 350.955 395.184 380.544 390.417 379.544C385.651 378.542 392.595 353.387 392.595 353.387C383.337 355.343 374.032 365.167 374.032 365.167C362.067 381.43 383.598 395.931 383.598 395.931C383.598 395.931 383.047 406.179 375.75 417.379C375.75 417.379 374.143 419.426 372.387 422.985L374.85 423.189C375.107 422.546 375.381 421.928 375.677 421.335C375.677 421.33 375.68 421.327 375.682 421.325C375.688 421.317 375.693 421.307 375.695 421.3C375.896 420.933 376.183 420.413 376.54 419.78C376.54 419.78 376.54 419.778 376.543 419.778C376.543 419.775 376.545 419.775 376.545 419.775C377.421 418.366 378.019 417.324 378.407 416.565C378.407 416.563 378.409 416.56 378.409 416.558C381.048 412.129 384.795 406.382 387.067 405.3C387.067 405.3 386.825 404.895 386.634 404.127C386.772 404.501 386.916 404.89 387.067 405.3C390.53 414.669 411.483 417.922 423.423 416.492C435.366 415.061 430.521 411.331 424.645 405.438C418.77 399.545 405.403 399.862 401.666 397.43C397.928 394.999 403.824 393.371 411.601 394.622C419.378 395.873 422.643 404.016 435.187 406.267C447.733 408.52 459.344 385.567 459.344 385.567C450.387 387.549 435.132 381.438 434.78 378.381C434.427 375.324 457.586 377.55 461.273 376.947C464.956 376.347 471.88 369.655 469.166 354.899Z" fill="#CDE0FB"/>
<path d="M30.7088 395.195C19.0529 377.527 46.696 355.931 46.696 355.931C46.696 355.931 89.0311 362.065 94.1824 357.526C99.3363 352.99 59.0135 345.226 59.0135 345.226C66.8034 334.498 101.223 320.02 101.223 320.02C101.223 320.02 131.097 349.224 134.973 343.56C138.849 337.896 107.199 319.048 107.199 319.048C118.536 312.02 137.609 312.954 137.609 312.954C165.68 317.855 157.928 353.6 157.928 353.6C157.928 353.6 168.5 363.499 186.876 367.792C186.876 367.792 190.513 368.309 195.778 370.223L193.471 372.83C192.584 372.426 191.698 372.062 190.818 371.75C190.813 371.745 190.808 371.745 190.803 371.745C190.79 371.74 190.778 371.735 190.765 371.732C190.204 371.554 189.402 371.305 188.421 371.007C188.418 371.007 188.418 371.007 188.416 371.007C188.413 371.004 188.413 371.007 188.411 371.007C186.144 370.424 184.514 369.944 183.38 369.55C183.378 369.55 183.373 369.547 183.37 369.545C176.355 367.606 151.031 403.157 137.473 413.337C123.916 423.518 125.201 414.998 125.425 403.273C125.651 391.548 139.566 378.846 141 372.73C142.433 366.613 134.837 370.698 128.142 379.549C121.443 388.401 126.076 399.872 115.505 414.387C104.933 428.903 70.682 416.846 70.682 416.846C81.7367 410.137 91.2999 389.051 88.6714 385.597C86.0429 382.144 64.6377 406.973 60.2938 409.952C55.9498 412.931 42.3647 412.863 30.7088 395.195Z" fill="#CDE0FB"/>
<path d="M381.654 204.28C381.654 204.28 405.567 155.592 418.941 159.914C432.315 164.232 381.654 204.28 381.654 204.28Z" fill="#CDE0FB"/>
<path d="M364.457 226.306C364.457 226.306 421.738 170.238 443.998 180.461C466.259 190.686 430.431 201.65 416.765 204.637C403.099 207.626 364.457 226.306 364.457 226.306Z" fill="#CDE0FB"/>
<path d="M188.63 215.583C188.63 215.583 164.717 166.895 151.343 171.217C137.969 175.538 188.63 215.583 188.63 215.583Z" fill="#DFEBFD"/>
<path d="M205.827 237.611C205.827 237.611 148.546 181.543 126.285 191.766C104.025 201.992 139.853 212.955 153.518 215.942C167.187 218.931 205.827 237.611 205.827 237.611Z" fill="#DFEBFD"/>
<path d="M144.833 87.3517C153.013 69.1062 184.283 80.1354 184.283 80.1354C184.283 80.1354 200.887 116.938 207.122 118.734C213.36 120.53 199.081 84.5009 199.081 84.5009C211.597 85.2519 240.628 105.291 240.628 105.291C240.628 105.291 232.494 143.894 238.981 144.103C245.468 144.311 244.439 109.556 244.439 109.556C255.803 115.009 264.743 130.662 264.743 130.662C275.085 155.489 242.626 167.47 242.626 167.47C242.626 167.47 240.095 180.908 246.001 197.712C246.001 197.712 247.435 200.869 248.582 206.031L245.329 205.518C245.201 204.606 245.043 203.717 244.844 202.858C244.844 202.851 244.844 202.848 244.839 202.843C244.836 202.831 244.834 202.818 244.831 202.805C244.688 202.268 244.479 201.504 244.218 200.57V200.567C244.218 200.565 244.215 200.565 244.215 200.562C243.529 198.463 243.083 196.923 242.822 195.82C242.822 195.818 242.819 195.813 242.819 195.81C240.804 189.244 237.771 180.624 235.173 178.507C235.173 178.507 235.613 178.057 236.103 177.128C235.807 177.567 235.497 178.027 235.173 178.507C227.725 189.543 199.574 187.145 184.567 181.523C169.561 175.904 177.011 172.601 186.481 166.827C195.952 161.052 213.154 165.676 218.763 163.712C224.372 161.748 217.254 157.777 206.79 156.943C196.326 156.109 189.525 165.619 172.572 164.576C155.619 163.534 147.849 130.157 147.849 130.157C158.816 135.548 180.498 132.451 181.921 128.605C183.345 124.76 152.661 120.334 148.078 118.39C143.497 116.443 136.653 105.597 144.833 87.3517Z" fill="#DFEBFD"/>
<path d="M397.973 151.523V424.145C397.973 426.788 395.828 428.933 393.179 428.933H182.789C180.14 428.933 177.992 426.788 177.992 424.145V151.523C177.992 148.878 180.14 146.735 182.789 146.735H393.179C395.828 146.735 397.973 148.875 397.973 151.523Z" fill="#F78248"/>
<path d="M200.68 146.735V428.933H182.789C180.14 428.933 177.992 426.788 177.992 424.145V151.523C177.992 148.878 180.14 146.735 182.789 146.735H200.68Z" fill="#EA642F"/>
<path d="M267.233 224.886V215.219H270.96V224.788C270.96 227.544 272.339 228.971 274.615 228.971C276.889 228.971 278.27 227.594 278.27 224.912V215.221H281.998V224.768C281.998 229.892 279.118 232.404 274.567 232.404C270.015 232.402 267.233 229.865 267.233 224.886Z" fill="#FFEDDC"/>
<path d="M284.631 229.671L286.834 227.037C288.359 228.292 289.956 229.091 291.893 229.091C293.417 229.091 294.338 228.486 294.338 227.448C294.338 226.507 293.757 226.022 290.924 225.298C287.511 224.429 285.31 223.485 285.31 220.079C285.31 217.01 287.778 214.98 291.239 214.98C293.706 214.98 295.812 215.754 297.532 217.13L295.595 219.933C294.096 218.893 292.62 218.265 291.191 218.265C289.762 218.265 289.013 218.918 289.013 219.788C289.013 220.9 289.74 221.262 292.668 222.01C296.103 222.905 298.04 224.138 298.04 227.134C298.04 230.493 295.475 232.379 291.82 232.379C289.254 232.377 286.663 231.482 284.631 229.671Z" fill="#FFEDDC"/>
<path d="M301.28 215.219H314.058V218.529H304.982V221.96H312.968V225.271H304.982V228.822H314.178V232.133H301.28V215.219Z" fill="#FFEDDC"/>
<path d="M317.494 215.219H325.238C327.391 215.219 329.061 215.824 330.176 216.934C331.119 217.876 331.627 219.205 331.627 220.85C331.627 223.58 330.151 225.296 327.997 226.095L332.135 232.135H327.779L324.101 226.723H321.221V232.135H317.494V215.219ZM324.997 223.435C326.813 223.435 327.852 222.468 327.852 220.993C327.852 219.398 326.74 218.577 324.924 218.577H321.221V223.435H324.997Z" fill="#FFEDDC"/>
<path d="M249.59 240.618L254.042 247.771L258.494 240.618H262.511V257.534H258.809V246.49L254.042 253.717H253.944L249.226 246.563V257.534H245.571V240.618H249.59Z" fill="#FFEDDC"/>
<path d="M272.387 240.495H275.822L283.082 257.532H279.185L277.636 253.737H270.472L268.923 257.532H265.122L272.387 240.495ZM276.308 250.451L274.057 244.966L271.805 250.451H276.308Z" fill="#FFEDDC"/>
<path d="M285.695 240.618H289.131L297.069 251.034V240.618H300.749V257.534H297.58L289.375 246.779V257.534H285.698V240.618H285.695Z" fill="#FFEDDC"/>
<path d="M304.547 250.283V240.615H308.275V250.185C308.275 252.94 309.656 254.367 311.93 254.367C314.203 254.367 315.584 252.988 315.584 250.306V240.615H319.312V250.16C319.312 255.284 316.432 257.796 311.882 257.796C307.332 257.796 304.547 255.261 304.547 250.283Z" fill="#FFEDDC"/>
<path d="M328.312 240.495H331.748L339.007 257.532H335.111L333.561 253.737H326.398L324.848 257.532H321.048L328.312 240.495ZM332.233 250.451L329.982 244.966L327.731 250.451H332.233Z" fill="#FFEDDC"/>
<path d="M341.62 240.618H345.348V254.151H353.794V257.534H341.62V240.618Z" fill="#FFEDDC"/>
<path d="M250.549 326.071L254.395 323.954C254.717 323.78 255.109 323.803 255.408 324.009C255.791 324.275 256.188 324.526 256.598 324.762C257.363 325.204 258.14 325.581 258.932 325.885C259.304 326.028 259.551 326.375 259.556 326.769L259.642 331.353C259.647 331.843 260.031 332.247 260.527 332.28L264.715 332.564C265.19 332.594 265.608 332.268 265.693 331.803L266.435 327.646C266.498 327.239 266.83 326.927 267.25 326.872C269.021 326.634 270.752 326.114 272.374 325.33C272.766 325.142 273.247 325.247 273.526 325.581L275.176 327.55C275.493 327.922 276.041 328.005 276.454 327.736L279.912 325.415C279.983 325.368 280.048 325.317 280.101 325.252C280.363 324.961 280.418 324.524 280.219 324.17L278.637 321.299L278.25 320.6C278.733 319.987 279.18 319.329 279.58 318.639C280.121 317.707 280.564 316.74 280.906 315.765C281.039 315.393 281.381 315.137 281.776 315.135L285.474 315.069C285.979 315.057 286.394 314.668 286.424 314.165L286.643 310.968L286.704 310.051C286.739 309.551 286.389 309.101 285.896 309.016L282.418 308.396C282.013 308.328 281.698 308.014 281.64 307.614C281.449 306.426 281.132 305.258 280.695 304.143C280.664 304.043 280.627 303.955 280.586 303.859C280.571 303.829 280.561 303.797 280.554 303.764C280.441 303.395 280.566 302.998 280.866 302.749L284.063 300.069C284.1 300.041 284.133 300.004 284.163 299.971C284.45 299.65 284.488 299.162 284.246 298.796L281.935 295.349C281.655 294.932 281.107 294.799 280.662 295.04L276.65 297.251C276.313 297.442 275.893 297.399 275.594 297.155C274.927 296.623 274.21 296.131 273.443 295.686C273.035 295.45 272.625 295.236 272.208 295.038C271.871 294.875 271.65 294.538 271.645 294.166L271.562 289.761C271.554 289.276 271.174 288.872 270.684 288.839L266.541 288.563C266.04 288.527 265.593 288.872 265.502 289.371L264.916 292.659C264.838 293.101 264.471 293.425 264.028 293.456C262.28 293.556 260.56 293.935 258.93 294.563C258.547 294.719 258.102 294.606 257.836 294.284L255.416 291.406C255.091 291.019 254.528 290.941 254.105 291.22L250.664 293.518C250.249 293.795 250.121 294.342 250.36 294.769L250.451 294.938L252.289 298.273C252.485 298.63 252.44 299.062 252.176 299.376L252.174 299.381C251.542 300.127 250.966 300.941 250.458 301.817C250.186 302.284 249.945 302.759 249.721 303.244C249.57 303.583 249.238 303.799 248.868 303.807L245.116 303.872C244.603 303.879 244.18 304.281 244.147 304.789L243.871 308.908C243.863 309.026 243.881 309.139 243.908 309.245C244.009 309.586 244.301 309.857 244.665 309.925L247.445 310.415C247.784 310.478 248.066 310.719 248.182 311.035C248.212 311.118 248.232 311.209 248.24 311.302C248.383 313.54 248.972 315.722 249.973 317.734C250.146 318.073 250.088 318.48 249.849 318.769C249.814 318.809 249.776 318.847 249.734 318.885L247.143 321.055C246.768 321.369 246.688 321.914 246.959 322.326L247.012 322.406L249.261 325.77C249.548 326.184 250.103 326.317 250.549 326.071ZM271.627 303.98C272.095 304.462 272.54 305.005 272.945 305.615C273.715 306.781 274.286 308.883 274.193 310.279C274.182 310.428 274.17 310.576 274.157 310.724C273.237 319.671 262.288 322.484 257.166 314.931C256.5 313.942 255.987 312.314 255.874 310.95C255.851 310.634 255.846 310.33 255.869 310.061C255.962 308.792 256.251 307.645 256.699 306.62C259.262 300.79 266.913 299.192 271.627 303.98Z" fill="#EA642F"/>
<path d="M288.972 295.869L291.38 295.053C291.581 294.988 291.802 295.038 291.953 295.189C292.144 295.38 292.345 295.563 292.554 295.739C292.944 296.068 293.349 296.362 293.772 296.615C293.968 296.733 294.073 296.957 294.036 297.183L293.618 299.803C293.57 300.082 293.749 300.353 294.028 300.421L296.385 301.006C296.652 301.071 296.923 300.928 297.019 300.672L297.864 298.379C297.942 298.155 298.161 298.009 298.407 298.019C299.441 298.062 300.48 297.942 301.484 297.66C301.725 297.592 301.989 297.703 302.115 297.919L302.854 299.21C302.998 299.454 303.302 299.557 303.564 299.444L305.77 298.472C305.815 298.451 305.858 298.429 305.893 298.399C306.071 298.261 306.147 298.014 306.069 297.793L305.312 295.56C305.649 295.262 305.971 294.93 306.27 294.576C306.673 294.099 307.022 293.594 307.319 293.074C307.432 292.875 307.654 292.765 307.877 292.802L309.99 293.139C310.28 293.184 310.556 293.003 310.624 292.72L311.203 290.404C311.273 290.122 311.12 289.831 310.848 289.733L308.929 289.027C308.705 288.947 308.557 288.736 308.564 288.505C308.577 287.809 308.514 287.111 308.378 286.43C308.37 286.37 308.358 286.315 308.345 286.257C308.34 286.237 308.338 286.219 308.335 286.199C308.308 285.978 308.421 285.764 308.617 285.651L310.712 284.448C310.737 284.436 310.76 284.418 310.78 284.403C310.976 284.25 311.047 283.976 310.946 283.743L309.98 281.545C309.865 281.278 309.565 281.148 309.286 281.241L306.776 282.095C306.564 282.17 306.331 282.102 306.182 281.932C305.858 281.56 305.498 281.208 305.106 280.877C304.897 280.701 304.686 280.538 304.467 280.382C304.291 280.256 304.2 280.04 304.235 279.827L304.635 277.307C304.681 277.031 304.504 276.762 304.228 276.692L301.896 276.114C301.614 276.044 301.325 276.195 301.222 276.471L300.553 278.284C300.462 278.528 300.221 278.676 299.967 278.649C298.961 278.531 297.942 278.571 296.948 278.764C296.715 278.814 296.473 278.704 296.352 278.495L295.266 276.609C295.12 276.355 294.805 276.255 294.539 276.37L292.345 277.33C292.081 277.445 291.951 277.744 292.046 278.013L292.081 278.119L292.791 280.206C292.866 280.429 292.796 280.671 292.615 280.821L292.612 280.824C292.177 281.186 291.764 281.59 291.387 282.04C291.186 282.278 291 282.524 290.821 282.778C290.7 282.956 290.489 283.047 290.278 283.012L288.132 282.667C287.838 282.62 287.556 282.806 287.488 283.092L286.912 285.41C286.897 285.476 286.895 285.543 286.9 285.606C286.922 285.81 287.061 285.996 287.262 286.071L288.796 286.631C288.983 286.701 289.121 286.867 289.154 287.058C289.161 287.108 289.164 287.161 289.159 287.214C289.013 288.505 289.128 289.808 289.493 291.054C289.559 291.265 289.483 291.491 289.317 291.632C289.294 291.652 289.267 291.67 289.239 291.685L287.541 292.659C287.295 292.8 287.194 293.104 287.307 293.365L287.33 293.415L288.271 295.56C288.389 295.832 288.693 295.962 288.972 295.869ZM303.227 285.415C303.446 285.737 303.642 286.091 303.81 286.48C304.132 287.221 304.243 288.48 304.047 289.263C304.027 289.349 304.004 289.429 303.981 289.512C302.548 294.516 296.023 295.01 293.872 290.188C293.593 289.557 293.465 288.578 293.54 287.789C293.56 287.606 293.588 287.432 293.628 287.282C293.809 286.568 294.091 285.943 294.451 285.405C296.503 282.346 301.026 282.213 303.227 285.415Z" fill="#FFEDDC"/>
<path d="M296.03 359.962L302.271 356.936C302.794 356.689 303.408 356.755 303.866 357.106C304.449 357.556 305.053 357.986 305.682 358.392C306.849 359.151 308.046 359.809 309.271 360.352C309.844 360.608 310.207 361.176 310.181 361.798L309.942 369.035C309.91 369.806 310.483 370.477 311.263 370.57L317.843 371.361C318.59 371.449 319.274 370.964 319.448 370.238L320.957 363.745C321.09 363.11 321.636 362.645 322.303 362.59C325.115 362.359 327.887 361.68 330.508 360.578C331.141 360.311 331.891 360.52 332.301 361.065L334.741 364.308C335.209 364.918 336.069 365.096 336.741 364.705L342.387 361.329C342.503 361.261 342.609 361.183 342.697 361.088C343.134 360.651 343.258 359.962 342.971 359.39L340.712 354.733L340.159 353.6C340.969 352.673 341.728 351.671 342.418 350.613C343.346 349.187 344.123 347.7 344.744 346.193C344.983 345.618 345.544 345.243 346.168 345.268L352.006 345.467C352.803 345.489 353.49 344.907 353.578 344.118L354.184 339.094L354.353 337.655C354.448 336.869 353.935 336.131 353.165 335.957L347.732 334.694C347.101 334.556 346.628 334.031 346.57 333.4C346.367 331.509 345.964 329.645 345.363 327.849C345.323 327.689 345.27 327.545 345.217 327.395C345.194 327.344 345.184 327.292 345.174 327.239C345.026 326.649 345.257 326.031 345.748 325.664L351.01 321.695C351.073 321.655 351.126 321.6 351.176 321.55C351.654 321.065 351.754 320.301 351.402 319.704L348.039 314.077C347.632 313.399 346.779 313.143 346.06 313.487L339.553 316.647C339.004 316.921 338.348 316.82 337.893 316.408C336.886 315.511 335.795 314.678 334.623 313.916C334.001 313.512 333.367 313.138 332.726 312.794C332.205 312.51 331.886 311.96 331.909 311.372L332.138 304.417C332.165 303.651 331.597 302.985 330.827 302.892L324.315 302.119C323.528 302.023 322.793 302.528 322.61 303.312L321.415 308.451C321.254 309.142 320.653 309.624 319.948 309.636C317.184 309.654 314.44 310.111 311.816 310.968C311.2 311.181 310.508 310.968 310.111 310.438L306.532 305.7C306.051 305.065 305.168 304.897 304.482 305.299L298.868 308.642C298.191 309.041 297.942 309.898 298.287 310.591L298.415 310.865L301.043 316.275C301.325 316.855 301.217 317.533 300.777 318.003L300.772 318.008C299.715 319.133 298.739 320.367 297.867 321.711C297.401 322.426 296.981 323.155 296.586 323.901C296.32 324.421 295.779 324.737 295.195 324.72L289.269 324.516C288.459 324.486 287.76 325.086 287.667 325.883L286.892 332.358C286.872 332.544 286.887 332.725 286.922 332.893C287.056 333.438 287.491 333.893 288.062 334.028L292.406 335.025C292.937 335.154 293.362 335.555 293.518 336.063C293.558 336.196 293.58 336.339 293.585 336.485C293.628 340.026 294.38 343.518 295.794 346.77C296.043 347.318 295.915 347.959 295.515 348.393C295.457 348.453 295.391 348.511 295.321 348.564L291.058 351.774C290.439 352.239 290.27 353.093 290.665 353.763L294.016 359.38C294.443 360.058 295.306 360.311 296.03 359.962ZM331.076 326.842C331.775 327.638 332.432 328.532 333.02 329.527C334.14 331.426 334.867 334.792 334.605 336.982C334.577 337.218 334.545 337.449 334.512 337.68C332.331 351.716 314.832 355.26 307.374 342.93C306.403 341.317 305.727 338.705 305.661 336.545C305.654 336.045 305.666 335.565 305.724 335.143C305.973 333.152 306.524 331.363 307.317 329.786C311.837 320.801 324.033 318.91 331.076 326.842Z" fill="#EA642F"/>
<path d="M208.986 141.36C208.986 141.36 203.354 141.239 203.163 146.735H215C215 146.735 216.24 142.636 219.87 144.047V141.36H208.986Z" fill="#7999E2"/>
<path d="M208.986 141.36C208.986 141.36 219.009 142.314 219.392 150.895C219.774 159.475 219.392 176.635 219.392 176.635L227.028 173.774L233.138 176.635V150.513C233.138 150.513 232.564 142.696 224.354 141.36L208.986 141.36Z" fill="#AEC3FF"/>
<path d="M359.813 146.745H338.725C337.264 145.72 334.512 143.482 331.896 139.667C331.393 138.934 330.898 138.145 330.415 137.293C327.711 132.511 352.738 143.555 359.813 146.745Z" fill="#233862"/>
<path d="M346.812 193.597C347.378 194.253 347.446 194.981 347.156 195.757C347.156 195.76 347.154 195.765 347.151 195.767C346.621 197.202 344.885 198.797 342.873 200.389C342.616 200.593 342.387 200.778 342.189 200.952C342.136 200.997 342.083 201.042 342.035 201.087C341.995 201.123 341.955 201.16 341.917 201.193C340.038 202.898 340.737 203.295 337.362 206.759C333.511 210.705 330.88 210.758 330.133 210.389C329.502 210.075 330.804 207.977 332.246 205.621C332.316 205.508 332.384 205.393 332.455 205.277C332.646 204.963 332.837 204.647 333.028 204.33C334.718 201.492 334.298 200.153 333.934 195.908C333.637 192.459 328.702 176.618 328.702 176.618L336.036 175.41C336.036 175.41 338.154 188.011 340.571 189.965C341.864 191.008 343.318 191.03 344.563 191.806C344.651 191.859 344.737 191.914 344.822 191.972C345.524 192.449 346.243 192.942 346.812 193.597Z" fill="#FFB27D"/>
<path d="M346.812 193.597C347.378 194.253 347.446 194.981 347.156 195.757C347.156 195.76 347.154 195.765 347.151 195.767C346.503 197.202 344.812 198.787 342.865 200.374C342.611 200.583 342.387 200.773 342.186 200.952C342.133 200.997 342.081 201.042 342.033 201.087C341.993 201.123 341.952 201.16 341.915 201.193C340.036 202.898 340.735 203.295 337.359 206.759C333.508 210.705 330.877 210.758 330.13 210.389C329.499 210.075 330.802 207.977 332.243 205.621C332.99 205.355 336.456 203.976 339.092 200.655C341.414 197.739 342.976 193.982 344.558 191.809C344.646 191.862 344.732 191.917 344.817 191.975C345.524 192.449 346.243 192.942 346.812 193.597Z" fill="#233862"/>
<path d="M287.775 188.614C287.307 190.87 284.085 190.47 280.491 189.566C276.897 188.662 277.744 189.712 272.623 189.109C267.502 188.506 265.963 186.587 265.812 185.826C265.676 185.15 268.211 184.929 270.928 184.635C271.27 184.6 271.612 184.56 271.956 184.52C275.025 184.158 277.286 182.196 280.083 180.594C282.732 179.074 286.714 172.84 286.714 172.84L293.739 173.445C293.739 173.445 290.011 179.014 288.568 181.435C287.717 182.859 287.75 184.751 287.843 186.213C287.896 187.006 287.941 187.82 287.775 188.614Z" fill="#FFB27D"/>
<path d="M280.491 189.563C276.897 188.659 277.744 189.709 272.623 189.106C267.502 188.503 265.963 186.584 265.812 185.823C265.676 185.148 268.211 184.927 270.928 184.633L270.953 184.686C270.953 184.686 274.011 186.883 278.277 187.016C281.754 187.124 285.444 186.157 287.846 186.213C287.893 187.006 287.941 187.82 287.775 188.614C287.307 190.867 284.085 190.468 280.491 189.563Z" fill="#233862"/>
<path d="M338.871 182.244C338.871 182.244 338.381 182.561 337.651 182.965C336.781 183.442 335.568 184.04 334.449 184.354C333.252 184.688 332.029 184.773 331.152 184.783C330.389 184.789 329.889 184.738 329.889 184.738L321.473 161.622L315.029 143.919C315.029 143.919 321.727 126.769 328.558 134.945C329.388 135.94 330.168 137.391 330.898 139.17C331.396 140.383 331.868 141.749 332.321 143.231C332.658 144.344 332.985 145.519 333.3 146.743C334.15 150.071 334.904 153.751 335.563 157.443C337.759 169.776 338.871 182.244 338.871 182.244Z" fill="#233862"/>
<path d="M383.82 144.713C383.44 145.67 382.771 146.336 381.873 146.748H350.806C343.331 145.203 336.185 141.789 331.899 139.67C331.544 139.491 331.212 139.325 330.9 139.175C329.436 138.449 328.428 137.954 328.015 137.869C325.417 137.329 324.084 141.553 321.883 146.75C321.432 147.808 320.952 148.903 320.414 150.01C320.029 150.799 319.307 151.821 318.334 153.002C318.152 153.221 317.966 153.442 317.77 153.67C310.217 162.479 290.773 178.883 290.773 178.883C290.773 178.883 290.545 178.883 290.175 178.876C288.985 178.853 286.334 178.745 285.066 178.258C284.337 177.977 283.793 177.665 283.411 177.399C282.853 177.002 282.624 176.693 282.624 176.693C282.624 176.693 305.89 131.265 317.939 118.89V118.887C318.115 118.706 318.286 118.535 318.457 118.372C319.772 117.089 320.939 116.242 321.91 115.936C326.015 114.645 352.567 116.084 352.567 116.084L353.415 114.707L354.833 114.607L356.259 114.504H356.262L380.067 112.814C380.067 112.814 380.62 114.059 381.367 116.127C381.659 116.933 381.981 117.862 382.31 118.892C384.471 125.656 386.999 136.691 383.82 144.713Z" fill="#2B478B"/>
<path d="M391.861 67.6544C385.799 62.4852 381.473 61.2067 380.872 53.0258C380.545 48.585 374.573 33.8911 364.472 35.1772C363.627 35.2852 362.777 35.3605 361.926 35.3254C360.747 35.2802 358.8 35.4359 356.793 36.6114C351.931 39.4547 342.974 65.743 349.01 74.9813C350.092 76.639 351.659 77.7492 353.825 78.0732C354.079 78.2164 354.338 78.3621 354.604 78.5103H354.607C355.693 79.1207 356.886 79.7888 358.148 80.5047C365.287 84.5235 374.631 89.8359 379.418 92.5235H379.42C379.71 92.6868 379.981 92.84 380.238 92.9831C380.794 93.2921 381.264 93.5533 381.629 93.7543C382.19 94.0607 382.517 94.2315 382.542 94.2315C382.542 94.2315 383.774 94.7062 385.502 95.0629C387.909 95.5627 391.28 95.8441 393.627 94.3094C394.555 93.704 395.425 92.953 396.2 92.0839C401.059 86.6635 402.34 76.5838 391.861 67.6544Z" fill="#233862"/>
<path d="M361.811 73.6902C361.768 73.7178 366.466 75.3555 369.626 73.9841C372.596 72.698 374.875 67.8478 374.832 67.8428C373.484 67.77 372.015 66.5844 370.929 58.8582L370.353 59.0591L360.681 62.4576C360.681 62.4576 361.358 65.5546 361.79 68.5009C362.153 70.975 362.339 73.3436 361.811 73.6902Z" fill="#FFB27D"/>
<path d="M360.681 62.4601C360.681 62.4601 361.094 64.6302 361.665 67.7298C367.214 66.7728 369.55 62.0456 370.353 59.0591L360.681 62.4601Z" fill="#ED975D"/>
<path d="M359.222 65.5169C359.222 65.5169 372.435 63.8416 371.263 55.6406C370.091 47.4397 371.007 41.7003 362.522 42.4237C354.038 43.147 352.849 46.5103 352.574 49.3411C352.295 52.1744 355.754 65.7405 359.222 65.5169Z" fill="#FFB27D"/>
<path d="M353.085 44.855C353.085 44.855 361.484 52.1869 367.226 52.8124C372.969 53.4403 375.159 51.6117 375.159 51.6117C375.159 51.6117 371.791 48.7784 369.784 44.2321C369.193 42.8908 367.93 41.9665 366.469 41.8309C362.366 41.4491 354.589 41.2331 353.085 44.855Z" fill="#233862"/>
<path d="M358.372 44.2422C358.372 44.2422 355.527 46.9524 354.622 48.9693C353.749 50.916 353.457 55.5879 354.129 57.4466C354.129 57.4466 349.785 48.8638 352.308 44.727C354.982 40.3414 358.372 44.2422 358.372 44.2422Z" fill="#233862"/>
<path d="M350.557 93.0284C350.768 119.713 350.517 114.135 353.422 116.687C354.121 117.302 356.098 117.679 358.704 117.87C366.894 118.47 381.304 117.224 381.863 115.715C383.789 110.495 382.466 108.863 384.101 100.863C384.272 100.011 384.481 99.0918 384.728 98.0896C386.081 92.5989 387.374 90.7351 382.773 81.8635C378.6 73.8284 374.251 67.3003 373.856 67.5313C362.651 74.067 361.79 68.5009 361.79 68.5009C361.79 68.5009 350.454 80.0124 350.557 93.0284Z" fill="#FF9966"/>
<path d="M338.871 182.244C338.871 182.244 338.381 182.561 337.651 182.965C336.781 183.442 335.568 184.04 334.449 184.354C333.252 184.688 332.029 184.773 331.152 184.783C330.389 184.789 329.889 184.738 329.889 184.738L321.473 161.622L332.321 143.231C332.658 144.344 332.985 145.519 333.3 146.743C334.15 150.071 334.904 153.751 335.563 157.443C337.759 169.776 338.871 182.244 338.871 182.244Z" fill="#2B478B"/>
<path d="M361.788 68.5008C361.788 68.5008 350.293 70.3646 348.91 75.2902C347.526 80.2183 339.387 109.184 339.387 109.184C339.387 109.184 345.217 110.272 347.931 107.599C350.648 104.927 357.489 82.6823 357.489 82.6823L361.788 68.5008Z" fill="#FF9966"/>
<path d="M358.704 117.87C366.894 118.47 381.304 117.224 381.863 115.715C383.789 110.495 382.466 108.863 384.101 100.863L380.228 89.7229C380.228 89.7229 380.794 102.101 377.116 105.331C373.444 108.559 362.11 111.508 360.314 114.215C359.449 115.514 358.878 116.82 358.704 117.87Z" fill="#CC6633"/>
<path d="M368.129 112.731C368.129 112.731 360.06 110.877 358.75 111.583C357.439 112.291 354.235 114.876 353.83 115.78C353.425 116.684 356.737 115.112 357.814 114.831C358.511 114.65 360.337 115.298 361.242 115.607C365.048 116.903 367.39 116.267 367.39 116.267L368.129 112.731Z" fill="#FFB27D"/>
<path d="M373.861 67.5263C373.861 67.5263 384.71 68.2698 388.43 73.5294C393.667 80.9342 403.937 112.399 397.895 116.544C391.091 121.21 367.068 117.561 367.068 117.561C367.068 117.561 366.293 113.821 367.42 112.02C368.547 110.221 386.659 107.431 387.502 106.602C388.342 105.773 377.179 90.2679 377.197 87.7662C377.212 85.267 373.861 67.5263 373.861 67.5263Z" fill="#FF9966"/>
<path d="M358.342 113.828C358.342 113.828 356.634 115.999 356.076 116.255C355.52 116.511 355.16 116.443 355.16 116.443L356.315 114.401L358.342 113.828Z" fill="#FFB27D"/>
<path d="M358.75 111.585L353.809 113.939C353.809 113.939 354.016 114.283 354.622 114.26C355.228 114.238 356.762 113.69 356.762 113.69L358.75 111.585Z" fill="#FFB27D"/>
<path d="M357.13 118.558L318.18 118.284L306.668 89.1049L345.559 89.3787L357.13 118.558Z" fill="#CCCCCC"/>
<path d="M317.73 117.146L369.165 117.511L369.158 118.643L318.18 118.284L317.73 117.146Z" fill="#CCCCCC"/>
<path d="M328.116 103.806C327.829 102.782 328.428 101.958 329.451 101.963C330.475 101.97 331.539 102.807 331.823 103.831C332.11 104.856 331.511 105.68 330.488 105.675C329.464 105.668 328.4 104.831 328.116 103.806Z" fill="white"/>
<path d="M149.411 428.931H306.776C317.722 428.931 326.594 420.069 326.594 409.14V408.314C326.594 397.383 317.72 388.524 306.776 388.524H149.411C138.464 388.524 129.593 397.385 129.593 408.314V409.14C129.59 420.072 138.464 428.931 149.411 428.931Z" fill="#2B478B"/>
<path d="M238.596 403.353L238.455 412.185C238.329 419.996 244.572 426.431 252.395 426.557L356.984 428.225L357.011 426.464C351.143 423.417 347.182 417.246 347.295 410.195L347.345 407.088C347.458 400.035 351.616 393.997 357.577 391.136V391.101L252.988 389.433C245.163 389.307 238.722 395.542 238.596 403.353Z" fill="#FFEDDC"/>
<path d="M359.72 428.931H249.535C242.429 428.931 236.86 420.049 236.86 408.713C236.86 397.378 242.427 388.496 249.535 388.496H359.72C360.636 388.496 361.378 389.237 361.378 390.151C361.378 391.066 360.636 391.807 359.72 391.807H249.535C244.462 391.807 240.176 399.55 240.176 408.716C240.176 417.881 244.462 425.625 249.535 425.625H359.72C360.636 425.625 361.378 426.366 361.378 427.28C361.378 428.195 360.636 428.931 359.72 428.931Z" fill="#1B3770"/>
<path d="M349.209 399.274H269.647V399.513H349.209V399.274Z" fill="#E8C2A3"/>
<path d="M347.861 402.951H311.889V403.19H347.861V402.951Z" fill="#E8C2A3"/>
<path d="M347.861 415.5H285.109V415.739H347.861V415.5Z" fill="#E8C2A3"/>
<path d="M290.23 399.392C290.23 399.392 293.568 400.786 293.965 405.496C294.363 410.205 293.965 412.715 293.965 412.715L289.936 410.801L285.866 412.715V405.353C285.866 405.353 285.718 399.392 280.164 399.392H290.23Z" fill="#F78248"/>
<path d="M179.132 240.939C179.132 240.939 187.329 238.239 193.63 245.81C199.931 253.38 209.165 263.608 206.767 266.502C204.37 269.395 203.892 271.781 207.331 273.64C210.767 275.499 212.583 277.963 207.522 285.689C204.219 290.733 203.515 284.019 193.489 284.35C183.461 284.682 175.791 279.631 172.439 282.406C159.784 292.888 161.625 240.655 179.132 240.939Z" fill="#233862"/>
<path d="M176 279.585C176 279.585 152.958 290.469 148.523 290.275C144.089 290.082 115.487 280.771 115.487 280.771L116.184 285.465C116.184 285.465 137.267 297.575 144.639 298.263C151.896 298.939 176.712 291.76 179.107 290.243C181.501 288.726 182.96 281.12 176 279.585Z" fill="#ED985F"/>
<path d="M173.13 290.253C175.276 291.74 177.965 292.966 181.343 293.742C194 296.663 198.852 285.978 200.673 278.646C198.947 277.659 197.322 277.443 196.384 277.33C195.469 277.222 194.508 277.151 193.71 277.111C192.289 276.024 190.171 271.575 189.704 264.668L189.107 264.826L179.132 267.554C179.132 267.554 179.59 270.721 179.813 273.713C179.987 276.056 180.015 278.294 179.569 278.842C178.792 279.01 178.324 279.121 178.324 279.121C178.324 279.121 178.324 279.123 178.319 279.131C178.184 279.349 175.291 284.104 173.13 290.253Z" fill="#FFB27D"/>
<path d="M179.132 267.556C179.132 267.556 179.59 270.721 179.813 273.715C185.465 273.15 188.089 267.777 189.11 264.829L179.132 267.556Z" fill="#ED985F"/>
<path d="M177.444 270.53C177.444 270.53 190.858 269.792 190.27 261.455C189.681 253.121 191.014 247.412 182.424 247.53C173.835 247.651 172.396 250.949 171.915 253.777C171.435 256.608 173.94 270.508 177.444 270.53Z" fill="#FFB27D"/>
<path d="M171.981 249.115C173.872 246.46 175.477 246.897 176.408 247.588C183.443 243.042 188.589 248.65 188.589 248.65C189.915 254.566 194.48 257.683 194.48 257.683C194.48 257.683 192.146 259.363 186.411 258.321C184.66 258.002 183.036 256.891 181.624 255.505C184.178 259.155 187.475 261.681 187.475 261.681C180.528 259.059 177.155 249.911 176.815 248.944C176.051 249.735 174.551 251.446 174.172 253.043C173.656 255.214 171.432 258.607 170.147 258.549C170.15 258.547 169.146 253.096 171.981 249.115Z" fill="#233862"/>
<path d="M172.076 289.607C171.352 296.063 172.428 298.911 179.134 313.821C184.799 326.422 178.37 337.768 178.37 337.768C178.37 337.768 192.151 348.832 202.046 353.115C207.545 355.499 211.846 355.783 211.914 350.912C211.989 345.401 209.396 338.451 207.223 331.973C205.346 326.387 203.779 321.15 204.496 317.491C205.708 311.307 209.657 286.601 205.708 278.648C204.29 275.79 198.723 275.534 192.616 275.785C190.715 277.008 183.473 281.64 180.498 281.062C180.465 281.057 180.41 281.042 180.332 281.025C178.931 280.673 178.931 279.839 179.569 278.842C179.572 278.839 176.82 278.869 173.13 279.872C168.93 281.015 164.945 284.127 164.945 284.127C164.945 284.127 167.825 287.814 172.076 289.607Z" fill="#FFEDDC"/>
<path d="M176.715 366.887C174.901 366.684 173.266 365.691 172.252 364.174C172.091 363.933 171.92 363.675 171.737 363.398C167.939 357.659 166.462 340.081 157.923 321.354C155.843 316.795 148.375 315.976 146.34 310.822C146.34 310.822 141.329 294.118 155.931 293.624C170.534 293.131 195.041 340.104 195.428 345.03C195.803 349.802 205.085 370.085 176.715 366.887Z" fill="#1B3770"/>
<path d="M118.671 366.503H139.458C139.458 366.503 140.235 363.192 138.869 360.939C137.662 358.947 138.125 357.81 139.018 356.162C138.077 356.546 136.857 356.898 135.516 356.82C134.48 356.76 133.386 356.29 132.425 355.735C131.53 356.752 127.699 361.087 126.504 361.946C125.146 362.923 119.089 362.574 118.671 366.503Z" fill="#233862"/>
<path d="M145.864 298.454C144.612 307.823 139.725 337.399 131.105 351.826C128.325 356.478 138.107 359.085 138.16 359.073C139.473 358.731 141.659 356.642 142.665 355.735C149.665 349.435 163.874 331.597 163.874 317.297C163.874 310.324 163.997 297.007 158.919 293.621C155.792 291.536 146.362 294.734 145.864 298.454Z" fill="#1B3770"/>
<path d="M160.078 310.92C162.116 316.074 167.838 315.443 169.918 320.002C170.006 320.193 170.092 320.389 170.18 320.58C171.249 322.946 172.255 325.31 173.211 327.651C175.2 332.534 178.163 342.749 180.387 351.025C181.899 356.642 183.071 361.366 183.365 362.921C183.823 365.312 184.608 367.153 184.608 367.153C216.446 372.059 212.432 350.151 210.684 345.032C209.092 340.355 181.343 292.066 166.739 292.561C152.138 293.053 160.078 310.92 160.078 310.92Z" fill="#2B478B"/>
<path d="M133.929 366.503H154.716C154.716 366.503 155.493 363.192 154.127 360.939C152.92 358.947 153.383 357.81 154.276 356.162C153.335 356.546 152.115 356.898 150.774 356.82C149.738 356.76 148.644 356.29 147.683 355.735C146.788 356.752 142.957 361.087 141.762 361.946C140.404 362.923 134.347 362.574 133.929 366.503Z" fill="#1E3D7C"/>
<path d="M170.18 320.58C171.249 322.946 172.255 325.31 173.211 327.651C175.2 332.534 178.163 342.749 180.387 351.025C180.405 351.06 180.425 351.093 180.442 351.128C188.72 338.238 176.793 313.818 176.793 313.818C173.95 315.122 171.77 317.538 170.18 320.58Z" fill="#1E3D7C"/>
<path d="M157.998 297.791C156.746 307.16 154.985 337.399 146.362 351.829C143.583 356.481 153.365 359.088 153.418 359.075C154.731 358.734 156.917 356.644 157.923 355.737C164.923 349.438 179.132 331.599 179.132 317.3C179.132 310.327 170.937 297.57 165.859 294.184C162.732 292.096 158.494 294.068 157.998 297.791Z" fill="#2B478B"/>
<path d="M111.81 269.719L116.118 261.955L119.502 271.382L139.74 289.798L119.942 293.83L111.81 269.719Z" fill="#EA642F"/>
<path d="M135.796 274.898L143.694 298.984L119.942 293.83L111.81 269.719L135.796 274.898Z" fill="#F78248"/>
<path d="M134.883 274.331L112.786 269.378L111.81 269.719L134.722 274.665L134.883 274.331Z" fill="#FCECDB"/>
<path d="M134.883 274.331L135.147 274.758L134.722 274.665L134.883 274.331Z" fill="#EAC5A4"/>
<path d="M111.81 269.719L116.471 262.335L119.517 270.885L112.786 269.378L111.81 269.719Z" fill="#EFDECE"/>
<path d="M128.728 279.08C129.477 278.937 131.085 278.332 132.712 277.885C132.226 277.508 131.686 277.046 131.535 276.571C131.245 275.654 131.052 275.361 132.018 275.652C132.986 275.941 136.372 277.493 136.372 277.493C136.372 277.493 136.364 277.496 136.364 277.498C138.288 278.058 140.059 280.773 140.059 280.773C140.059 280.773 163.874 289.133 166.739 289.276C171.171 289.497 200.673 278.648 200.673 278.648C207.635 280.183 206.073 288.726 203.679 290.243C201.284 291.76 180.055 299.471 167.473 299.617C161.102 299.69 137.921 284.812 137.921 284.812C137.921 284.812 135.212 283.577 133.082 283.963C130.954 284.35 126.019 283.963 124.952 282.225C123.891 280.482 127.47 279.322 128.728 279.08Z" fill="#FFB27D"/>
<path d="M185.473 283.999C185.473 283.999 188.111 292.34 197.174 294.237C197.174 294.237 212.138 289.632 204.687 279.452C204.687 279.452 197.32 273.987 185.473 283.999Z" fill="#FFEDDC"/>
<path d="M113.266 279.708C113.261 279.48 113.286 279.251 113.347 279.033C113.347 279.033 115.482 275.662 116.181 275.524C118.312 275.104 118.312 277.902 117.859 279.711C117.545 280.969 117.084 282.788 116.438 283.441L117.343 286.124C113.007 284.355 113.266 279.708 113.266 279.708Z" fill="#FFB27D"/>
<path d="M202.046 353.113C207.545 355.496 211.846 355.78 211.914 350.91C211.989 345.399 209.396 338.449 207.223 331.971C207.223 331.971 204.23 334.033 197.785 329.313C192.699 325.594 199.111 344.821 202.046 353.113Z" fill="#2B478B"/>
<path d="M80.7507 418.514C80.7507 418.949 80.7759 419.381 80.8312 419.8C80.9947 421.149 81.4122 422.42 82.0335 423.563C82.5215 424.455 83.1327 425.268 83.847 425.979C85.7637 427.891 88.4048 429.071 91.325 429.071H240.042C245.883 429.071 250.619 424.344 250.619 418.512C250.619 415.596 249.437 412.956 247.52 411.044C245.606 409.13 242.963 407.95 240.042 407.95H91.3225C85.4845 407.952 80.7507 412.679 80.7507 418.514Z" fill="#F78248"/>
<path d="M92.0922 406.041H143.082C143.975 406.041 144.705 405.312 144.705 404.421C144.705 403.529 143.975 402.801 143.082 402.801H92.0922C91.1992 402.801 90.4698 403.529 90.4698 404.421C90.4698 405.312 91.1992 406.041 92.0922 406.041Z" fill="#F78248"/>
<path d="M94.9102 407.953H100.436V406.042H94.9102V407.953Z" fill="#EA642F"/>
<path d="M82.0335 423.565C82.5215 424.457 83.1327 425.271 83.8471 425.982C85.7637 427.893 88.4048 429.074 91.3251 429.074H122.827V423.565H82.0335Z" fill="#EA642F"/>
<path d="M270.304 415.42V421.606C270.304 422.285 270.213 422.943 270.042 423.565C269.182 426.74 266.279 429.074 262.828 429.074H107.913C104.462 429.074 101.557 426.74 100.7 423.565C100.531 422.943 100.438 422.285 100.438 421.606V415.42C100.438 411.295 103.783 407.952 107.913 407.952H262.828C266.959 407.952 270.304 411.295 270.304 415.42Z" fill="#F99746"/>
<path d="M270.042 423.565C269.182 426.74 266.279 429.074 262.828 429.074H107.913C104.462 429.074 101.557 426.74 100.7 423.565H270.042Z" fill="#EF873A"/>
<path d="M254.918 418.549C254.918 421.83 256.113 424.761 257.994 426.703C258.037 426.745 258.077 426.788 258.12 426.831C259.574 428.278 261.42 429.144 263.427 429.144C266.564 429.144 274.336 424.419 279.153 421.282C281.552 419.717 283.22 418.547 283.22 418.547C283.22 418.547 281.552 417.376 279.153 415.814C274.336 412.674 266.564 407.95 263.427 407.95C262.519 407.95 261.646 408.128 260.824 408.452C259.44 409.007 258.208 409.992 257.237 411.278C256.165 412.69 255.403 414.47 255.084 416.447C255.081 416.47 255.076 416.492 255.076 416.515C254.973 417.173 254.918 417.854 254.918 418.549Z" fill="#CDE0FB"/>
<path d="M254.918 418.549C254.918 421.83 256.113 424.761 257.994 426.703L281.837 418.512L255.076 416.515C254.973 417.173 254.918 417.854 254.918 418.549Z" fill="#A6C7ED"/>
<path d="M257.237 411.28L281.022 417.766L260.821 408.455C259.44 409.01 258.208 409.994 257.237 411.28Z" fill="#E3F0FF"/>
<path d="M277.601 418.549C277.601 419.81 278.247 420.885 279.153 421.285C281.552 419.72 283.22 418.549 283.22 418.549C283.22 418.549 281.552 417.379 279.153 415.817C278.247 416.211 277.601 417.286 277.601 418.549Z" fill="#2E3552"/>
<path d="M443.638 268.865C443.638 268.865 442.917 267.245 442.449 266.476C441.981 265.708 439.984 263.46 439.644 263.97C439.305 264.48 437.944 267.906 438.666 268.865C439.388 269.825 438.618 271.495 442.212 272.507L443.638 268.865Z" fill="#FFB27D"/>
<path d="M483.569 258.627C483.569 258.627 465.174 273.959 458.003 272.54C452.394 271.43 443.789 268.483 443.789 268.483L442.069 272.879C442.069 272.879 449.788 283.335 457.835 283.403C470.414 283.511 479.708 277.965 479.708 277.965L483.569 258.627Z" fill="#CC6633"/>
<path d="M515.825 420.348C515.825 420.348 515.292 428.948 513.624 429.071C513.403 429.089 505.173 429.089 505.173 429.089L494.666 429.028C494.666 429.028 494.734 426.501 497.806 425.966C500.877 425.431 506.018 423.276 507.877 419.222C509.836 414.957 515.825 420.348 515.825 420.348Z" fill="#1C3D72"/>
<path d="M516.431 420.943C516.431 420.943 513.237 422.01 510.744 422.01C507.962 422.01 505.434 421.254 505.434 421.254C505.434 421.254 504.833 415.447 501.523 402.652C499.788 395.946 497.31 387.323 493.786 376.61C484.042 346.999 481.076 329.675 480.807 328.035C480.792 327.95 480.787 327.907 480.787 327.907L480.82 327.892L510.779 314.755C510.779 314.755 507.077 355.566 511.801 371.23C512.462 373.42 513.028 375.972 513.516 378.735C516.499 395.752 516.431 420.943 516.431 420.943Z" fill="#2B478B"/>
<path d="M501.523 402.652C499.788 395.946 497.31 387.323 493.786 376.61C484.042 346.999 481.076 329.675 480.807 328.035C480.81 327.987 480.812 327.94 480.82 327.892L510.779 314.755C510.779 314.755 507.077 355.566 511.801 371.23C512.465 373.42 501.523 402.652 501.523 402.652Z" fill="#233862"/>
<path d="M492.425 420.348C492.425 420.348 491.892 428.948 490.224 429.071C490.003 429.089 481.773 429.089 481.773 429.089L471.267 429.028C471.267 429.028 471.334 426.501 474.406 425.966C477.477 425.431 482.618 423.276 484.477 419.222C486.434 414.957 492.425 420.348 492.425 420.348Z" fill="#1C3D72"/>
<path d="M475.437 315.717C475.437 315.717 475.047 342.164 479.63 374.633C484.213 407.106 482.658 420.888 482.658 420.888C482.658 420.888 485.805 421.907 487.078 422.01C490.315 422.274 493.633 421.252 493.633 421.252C493.633 421.252 500.19 388.77 498.311 372.516C496.43 356.262 507.293 316.747 507.293 316.747L475.437 315.717Z" fill="#2B478B"/>
<path d="M496.684 253.83L490.836 257.66L485.508 256.155C484.535 254.769 484.276 252.094 484.263 249.778C484.248 247.48 484.472 245.531 484.472 245.531L495.308 240.756C495.3 240.801 495.079 243.17 495.046 243.516C494.495 249.658 496.684 253.83 496.684 253.83Z" fill="#FFB27D"/>
<path d="M475.304 323.069C482.583 330.087 510.133 328.906 511.831 321.175C513.526 313.441 509.98 255.347 497.544 251.7C494.963 250.941 481.169 255.394 481.169 255.394C481.169 255.394 479.004 261.048 477.585 268.247C477.311 269.649 476.506 284.493 475.902 298.383C475.621 304.879 475.384 311.168 475.263 315.77C475.153 320.083 475.148 322.916 475.304 323.069Z" fill="#FF9966"/>
<path d="M494.455 243.624C492.853 246.327 487.239 248.693 484.263 249.776C484.248 247.477 484.472 245.528 484.472 245.528L492.362 242.049C494.105 242.029 495.167 242.419 494.455 243.624Z" fill="#FCA56B"/>
<path d="M481.494 245.048C481.494 245.048 494.206 249.009 496.555 241.065C498.902 233.12 502.124 228.282 494.108 225.416C486.092 222.55 483.609 225.117 482.18 227.577C480.749 230.041 478.247 243.815 481.494 245.048Z" fill="#FFB27D"/>
<path d="M482.678 226.813C482.678 226.813 483.488 236.056 485.403 235.657C487.317 235.258 489.425 234.396 489.145 237.184C488.866 239.97 491.007 244.747 493.768 244.737C499.689 244.712 506.124 229.541 504.501 226.665C499.825 218.363 475.92 216.688 482.678 226.813Z" fill="#163560"/>
<path d="M484.55 251.898C484.713 251.83 494.015 247.663 495.102 248.022C496.188 248.382 497.544 251.697 497.544 251.697L481.167 255.394C481.169 255.394 482.457 252.777 484.55 251.898Z" fill="#CC6633"/>
<path d="M426.648 296.889L478.782 345.906C479.804 346.868 481.094 347.172 481.645 346.587L483.405 344.721C483.959 344.133 483.574 342.867 482.553 341.907L430.418 292.89C429.397 291.928 428.107 291.624 427.556 292.209L425.795 294.076C425.244 294.663 425.626 295.929 426.648 296.889Z" fill="#1F4D84"/>
<path d="M455.906 324.395L478.782 345.904C479.804 346.866 481.094 347.17 481.645 346.584L483.405 344.718C483.959 344.13 483.574 342.864 482.553 341.905L459.676 320.397L455.906 324.395Z" fill="#F78248"/>
<path d="M429.301 238.513C413.84 222.098 387.98 221.315 371.545 236.757C371.326 236.961 371.112 237.166 370.903 237.375C355.087 252.88 354.521 278.236 369.782 294.435C385.246 310.847 411.106 311.636 427.543 296.193C432.923 291.137 436.631 284.968 438.633 278.38C442.753 264.851 439.702 249.555 429.301 238.513ZM425.33 293.85C415.764 302.839 402.732 305.856 390.837 303.045C383.913 301.408 377.373 297.793 372.128 292.23C357.887 277.111 358.611 253.327 373.751 239.106C379.325 233.869 386.071 230.661 393.088 229.448C405.129 227.366 417.952 231.173 426.949 240.726C441.199 255.842 440.469 279.625 425.33 293.85Z" fill="#1F4D84"/>
<path d="M372.131 292.227C377.375 297.793 383.915 301.405 390.84 303.045C402.732 305.856 415.764 302.837 425.332 293.85C440.472 279.628 441.196 255.841 426.952 240.723C417.952 231.171 405.129 227.366 393.091 229.448C386.073 230.658 379.325 233.868 373.753 239.103C358.614 253.325 357.887 277.111 372.131 292.227Z" fill="#B3CFF9"/>
<path d="M475.263 315.77C503.991 295.329 501.601 268.051 501.601 268.051C491.102 273.964 480.684 287.04 475.902 298.381C475.623 304.879 475.384 311.166 475.263 315.77Z" fill="#CC6633"/>
<path d="M446.911 306.461C444.886 305.994 443.525 304.464 443.241 304.198C443.241 304.198 442.376 304.256 443.382 306.097C443.465 306.25 443.654 306.647 443.794 306.926C443.852 307.042 443.772 307.172 443.643 307.182C442.474 307.27 441.299 306.808 439.048 307.278C438.736 307.343 438.648 308.086 438.658 308.403C438.678 308.938 438.641 309.541 439.264 310.362C439.627 310.839 440.64 311.354 442.894 312.261C443.754 312.605 446.209 312.346 448.511 311.555L450.349 310.706L449.778 307.293L449.315 307.388C448.586 307.544 447.676 306.65 446.911 306.461Z" fill="#FFB27D"/>
<path d="M492.687 255.394C492.687 255.394 518.499 260.302 485.093 297.627C479.751 303.598 450.885 311.369 450.885 311.369C450.885 311.369 447.957 308.883 449.434 306.868C449.434 306.868 469.307 292.456 473.681 290.165C475.648 289.135 481.315 267.162 484.522 261.87C487.729 256.58 492.687 255.394 492.687 255.394Z" fill="#FF9966"/>
<path d="M442.939 269.317C442.939 269.317 442.094 267.707 441.931 266.856C441.765 266.007 440.703 263.528 440.265 263.09C440.089 262.915 439.511 263.141 439.443 263.892C439.413 264.218 439.574 264.814 439.858 265.522C440.321 266.675 440.243 268.24 440.404 268.762C440.804 270.061 442.939 269.317 442.939 269.317Z" fill="#FFB27D"/>
<path d="M119.524 388.524H244.444C250.549 388.524 255.496 383.583 255.496 377.487C255.496 371.391 250.549 366.45 244.444 366.45H119.524C113.42 366.45 108.472 371.391 108.472 377.487C108.472 383.583 113.422 388.524 119.524 388.524Z" fill="#FF9966"/>
<path d="M189.824 374.541L189.719 379.358C189.626 383.618 194.284 387.13 200.122 387.197L278.177 388.107L278.197 387.147C273.818 385.484 270.862 382.119 270.945 378.273L270.983 376.578C271.066 372.73 274.17 369.437 278.619 367.877V367.857L200.565 366.948C194.727 366.88 189.917 370.278 189.824 374.541Z" fill="#FFEDDC"/>
<path d="M280.219 388.494H197.986C192.682 388.494 188.529 383.648 188.529 377.464C188.529 371.28 192.684 366.435 197.986 366.435H280.217C280.898 366.435 281.454 366.84 281.454 367.337C281.454 367.834 280.901 368.239 280.217 368.239H197.986C194.201 368.239 191.001 372.463 191.001 377.462C191.001 382.46 194.201 386.685 197.986 386.685H280.217C280.898 386.685 281.454 387.089 281.454 387.587C281.454 388.089 280.901 388.494 280.219 388.494Z" fill="#CC6633"/>
<path d="M272.374 372.303H212.998V372.456H272.374V372.303Z" fill="#E8C2A3"/>
<path d="M271.368 374.31H244.522V374.463H271.368V374.31Z" fill="#E8C2A3"/>
<path d="M271.37 381.157H224.538V381.31H271.37V381.157Z" fill="#E8C2A3"/>
<path d="M592.089 432H1.43821C0.922571 432 0.5 431.578 0.5 431.063V429.87C0.5 429.355 0.922571 428.933 1.43821 428.933H592.086C592.602 428.933 593.025 429.355 593.025 429.87V431.063C593.027 431.578 592.605 432 592.089 432Z" fill="#2E3552"/>
</svg>
